<?xml version="1.0" encoding="utf-8"?>
<!-- Generator: Adobe Illustrator 19.2.1, SVG Export Plug-In . SVG Version: 6.00 Build 0)  -->
<svg version="1.1" id="Layer_1" xmlns="http://www.w3.org/2000/svg" xmlns:xlink="http://www.w3.org/1999/xlink" x="0px" y="0px"
	 viewBox="0 0 862 531" style="enable-background:new 0 0 862 531;" xml:space="preserve">
<style type="text/css">
	.st0{fill:none;stroke:#BF6969;stroke-opacity:0.4;}
	.st1{fill:none;stroke:#BF7E69;stroke-opacity:0.4;}
	.st2{fill:none;stroke:#BF9269;stroke-opacity:0.4;}
	.st3{fill:none;stroke:#BFA769;stroke-opacity:0.4;}
	.st4{fill:none;stroke:#BFBB69;stroke-opacity:0.4;}
	.st5{fill:none;stroke:#AEBF69;stroke-opacity:0.4;}
	.st6{fill:none;stroke:#99BF69;stroke-opacity:0.4;}
	.st7{fill:none;stroke:#84BF69;stroke-opacity:0.4;}
	.st8{fill:none;stroke:#70BF69;stroke-opacity:0.4;}
	.st9{fill:none;stroke:#69BF77;stroke-opacity:0.4;}
	.st10{fill:none;stroke:#69BF8B;stroke-opacity:0.4;}
	.st11{fill:none;stroke:#69BFA0;stroke-opacity:0.4;}
	.st12{fill:none;stroke:#69BFB4;stroke-opacity:0.4;}
	.st13{fill:none;stroke:#69B4BF;stroke-opacity:0.4;}
	.st14{fill:none;stroke:#69A0BF;stroke-opacity:0.4;}
	.st15{fill:none;stroke:#698BBF;stroke-opacity:0.4;}
	.st16{fill:none;stroke:#6977BF;stroke-opacity:0.4;}
	.st17{fill:none;stroke:#7069BF;stroke-opacity:0.4;}
	.st18{fill:none;stroke:#8469BF;stroke-opacity:0.4;}
	.st19{fill:none;stroke:#9969BF;stroke-opacity:0.4;}
	.st20{fill:none;stroke:#AE69BF;stroke-opacity:0.4;}
	.st21{fill:none;stroke:#BF69BB;stroke-opacity:0.4;}
	.st22{fill:none;stroke:#BF69A7;stroke-opacity:0.4;}
	.st23{fill:none;stroke:#BF6992;stroke-opacity:0.4;}
	.st24{fill:none;stroke:#BF697E;stroke-opacity:0.4;}
	.st25{fill:none;stroke:#000000;}
	.st26{fill:#C0C0C0;}
	.st27{font-family:'ArialMT';}
	.st28{font-size:10px;}
	.st29{fill:none;}
	.st30{fill:#E5C3D3;}
	.st31{font-family:'MyriadPro-Regular';}
	.st32{font-size:12px;}
	.st33{fill:#E5E4C3;}
	.st34{fill:#D6E5C3;}
	.st35{fill:#E5CBC3;}
	.st36{fill:#E5C3C3;}
	.st37{fill:#DFC3E5;}
	.st38{fill:#ACD7C8;}
	.st39{fill:#C3E5E1;}
	.st40{fill:#ECD3E5;}
	.st41{fill:#C3E1E5;}
	.st42{fill:#C3D1E5;}
	.st43{fill:#98A4A2;}
	.st44{font-family:'PerpetuaTitlingMT-Bold';}
	.st45{font-size:24px;}
	.st46{fill:#E5C3E4;}
	.st47{fill:#C6C3E5;}
</style>
<g>
	<g transform="translate(40,30)">
		<g>
			<path class="st0" d="M15,405.8l95.9-95.8l95.9,172.5l95.9-65.7l95.9,65.7l95.9-460l95.9,230l95.9,230H782"/>
			<path class="st1" d="M15,252.5h95.9l95.9,178.9l95.9,51.1h95.9h95.9h95.9h95.9L782,329.2"/>
			<path class="st2" d="M15,482.5l95.9-143.8l95.9,92.6l95.9,51.1h95.9h95.9h95.9l95.9-230l95.9,76.7"/>
			<path class="st3" d="M15,405.8l95.9-95.8l95.9,19.2l95.9,87.6l95.9,65.7h95.9h95.9h95.9L782,329.2"/>
			<path class="st4" d="M15,175.8l95.9,47.9l95.9,3.2l95.9,58.4l95.9-262.9l95.9,460l95.9-460l95.9,460L782,175.8"/>
			<path class="st5" d="M15,405.8l95.9,76.7h95.9l95.9-65.7l95.9,65.7h95.9h95.9l95.9-230l95.9,76.7"/>
			<path class="st6" d="M15,482.5l95.9-230l95.9,127.8l95.9-29.2l95.9,131.4h95.9h95.9l95.9-460L782,329.2"/>
			<path class="st7" d="M15,482.5L110.8,310l95.9,172.5l95.9-65.7l95.9,65.7h95.9l95.9-230l95.9,230L782,329.2"/>
			<path class="st8" d="M15,482.5l95.9-115l95.9,115h95.9l95.9-460l95.9,460h95.9h95.9L782,175.8"/>
			<path class="st9" d="M15,405.8l95.9,47.9l95.9,28.8l95.9-65.7l95.9-394.3l95.9,460h95.9h95.9H782"/>
			<path class="st10" d="M15,405.8l95.9-95.8l95.9,121.4l95.9-146l95.9,197.1h95.9h95.9h95.9H782"/>
			<path class="st11" d="M15,405.8l95.9-124.6l95.9,201.3h95.9h95.9h95.9h95.9l95.9-230l95.9,230"/>
			<path class="st12" d="M15,482.5l95.9-258.8l95.9,156.5l95.9-226.3l95.9,328.6h95.9h95.9l95.9-230l95.9,76.7"/>
			<path class="st13" d="M15,329.2l95.9-47.9l95.9,201.3h95.9l95.9-460h95.9l95.9,460h95.9l95.9-460"/>
			<path class="st14" d="M15,405.8l95.9,19.2l95.9,57.5h95.9h95.9h95.9h95.9h95.9L782,329.2"/>
			<path class="st15" d="M15,482.5l95.9-460l95.9,255.6l95.9-124.1l95.9,328.6l95.9-460l95.9,460h95.9H782"/>
			<path class="st16" d="M15,405.8l95.9-38.3l95.9-89.4l95.9,138.7l95.9,65.7h95.9h95.9h95.9H782"/>
			<path class="st17" d="M15,329.2l95.9,95.8l95.9-249.2l95.9,306.7h95.9h95.9h95.9l95.9-230l95.9,230"/>
			<path class="st18" d="M15,405.8l95.9-9.6l95.9,35.1l95.9-14.6l95.9,65.7h95.9h95.9h95.9H782"/>
			<path class="st19" d="M15,405.8l95.9,19.2l95.9,6.4l95.9-14.6l95.9-394.3l95.9,460h95.9h95.9H782"/>
			<path class="st20" d="M15,405.8l95.9-67.1l95.9,41.5l95.9-29.2l95.9-328.6h95.9l95.9,460h95.9H782"/>
			<path class="st21" d="M15,482.5l95.9-316.3l95.9-143.8h95.9l95.9,460h95.9h95.9h95.9L782,329.2"/>
			<path class="st22" d="M15,175.8l95.9,191.7l95.9,12.8l95.9-94.9l95.9,197.1h95.9h95.9h95.9H782"/>
			<path class="st23" d="M15,22.5l95.9,316.3l95.9,92.6l95.9-80.3l95.9,131.4h95.9h95.9h95.9L782,329.2"/>
			<path class="st24" d="M15,482.5l95.9-86.3l95.9,86.3h95.9h95.9h95.9h95.9h95.9H782"/>
		</g>
		<g transform="translate(0)">
			<g>
				<g transform="translate(0,460)">
					<line class="st25" x1="15" y1="22.5" x2="9" y2="22.5"/>
					<text transform="matrix(1 0 0 1 -7.9324 25.7)" class="st26 st27 st28">4.0</text>
				</g>
				<g transform="translate(0,421.6666666666667)">
					<line class="st25" x1="15" y1="22.5" x2="9" y2="22.5"/>
					<text transform="matrix(1 0 0 1 0.4074 25.7)" class="st26 st27 st28">4</text>
				</g>
				<g transform="translate(0,383.33333333333337)">
					<line class="st25" x1="15" y1="22.5" x2="9" y2="22.5"/>
					<text transform="matrix(1 0 0 1 0.4074 25.7)" class="st26 st27 st28">5</text>
				</g>
				<g transform="translate(0,345)">
					<line class="st25" x1="15" y1="22.5" x2="9" y2="22.5"/>
					<text transform="matrix(1 0 0 1 -7.9324 25.7)" class="st26 st27 st28">5.5</text>
				</g>
				<g transform="translate(0,306.6666666666667)">
					<line class="st25" x1="15" y1="22.5" x2="9" y2="22.5"/>
					<text transform="matrix(1 0 0 1 0.4074 25.7)" class="st26 st27 st28">6</text>
				</g>
				<g transform="translate(0,268.33333333333337)">
					<line class="st25" x1="15" y1="22.5" x2="9" y2="22.5"/>
					<text transform="matrix(1 0 0 1 -7.9324 25.7)" class="st26 st27 st28">6.5</text>
				</g>
				<g transform="translate(0,230)">
					<line class="st25" x1="15" y1="22.5" x2="9" y2="22.5"/>
					<text transform="matrix(1 0 0 1 -7.9324 25.7)" class="st26 st27 st28">7.0</text>
				</g>
				<g transform="translate(0,191.66666666666669)">
					<line class="st25" x1="15" y1="22.5" x2="9" y2="22.5"/>
					<text transform="matrix(1 0 0 1 -7.9324 25.7)" class="st26 st27 st28">7.5</text>
				</g>
				<g transform="translate(0,153.33333333333337)">
					<line class="st25" x1="15" y1="22.5" x2="9" y2="22.5"/>
					<text transform="matrix(1 0 0 1 -7.9324 25.7)" class="st26 st27 st28">8.0</text>
				</g>
				<g transform="translate(0,115)">
					<line class="st25" x1="15" y1="22.5" x2="9" y2="22.5"/>
					<text transform="matrix(1 0 0 1 -7.9324 25.7)" class="st26 st27 st28">8.5</text>
				</g>
				<g transform="translate(0,76.66666666666669)">
					<line class="st25" x1="15" y1="22.5" x2="9" y2="22.5"/>
					<text transform="matrix(1 0 0 1 -7.9324 25.7)" class="st26 st27 st28">9.0</text>
				</g>
				<g transform="translate(0,38.33333333333337)">
					<line class="st25" x1="15" y1="22.5" x2="9" y2="22.5"/>
					<text transform="matrix(1 0 0 1 -7.9324 25.7)" class="st26 st27 st28">9.5</text>
				</g>
				<g transform="translate(0,0)">
					<line class="st25" x1="15" y1="22.5" x2="9" y2="22.5"/>
					<text transform="matrix(1 0 0 1 -13.4939 25.7)" class="st26 st27 st28">10.0</text>
				</g>
				<path class="st25" d="M9,22.5h6v460H9"/>
				<text transform="matrix(1 0 0 1 -9.2083 13.5)" class="st26 st27 st28">Successes</text>
			</g>
		</g>
		<g transform="translate(95.875)">
			<g>
				<g transform="translate(0,460)">
					<line class="st25" x1="15" y1="22.5" x2="9" y2="22.5"/>
					<text transform="matrix(1 0 0 1 0.4074 25.7)" class="st26 st27 st28">0</text>
				</g>
				<g transform="translate(0,402.5)">
					<line class="st25" x1="15" y1="22.5" x2="9" y2="22.5"/>
					<text transform="matrix(1 0 0 1 0.4074 25.7)" class="st26 st27 st28">2</text>
				</g>
				<g transform="translate(0,345)">
					<line class="st25" x1="15" y1="22.5" x2="9" y2="22.5"/>
					<text transform="matrix(1 0 0 1 0.4074 25.7)" class="st26 st27 st28">4</text>
				</g>
				<g transform="translate(0,287.5)">
					<line class="st25" x1="15" y1="22.5" x2="9" y2="22.5"/>
					<text transform="matrix(1 0 0 1 0.4074 25.7)" class="st26 st27 st28">6</text>
				</g>
				<g transform="translate(0,230)">
					<line class="st25" x1="15" y1="22.5" x2="9" y2="22.5"/>
					<text transform="matrix(1 0 0 1 0.4074 25.7)" class="st26 st27 st28">8</text>
				</g>
				<g transform="translate(0,172.5)">
					<line class="st25" x1="15" y1="22.5" x2="9" y2="22.5"/>
					<text transform="matrix(1 0 0 1 -5.1541 25.7)" class="st26 st27 st28">10</text>
				</g>
				<g transform="translate(0,115)">
					<line class="st25" x1="15" y1="22.5" x2="9" y2="22.5"/>
					<text transform="matrix(1 0 0 1 -5.1541 25.7)" class="st26 st27 st28">12</text>
				</g>
				<g transform="translate(0,57.5)">
					<line class="st25" x1="15" y1="22.5" x2="9" y2="22.5"/>
					<text transform="matrix(1 0 0 1 -5.1541 25.7)" class="st26 st27 st28">14</text>
				</g>
				<g transform="translate(0,0)">
					<line class="st25" x1="15" y1="22.5" x2="9" y2="22.5"/>
					<text transform="matrix(1 0 0 1 -5.1541 25.7)" class="st26 st27 st28">16</text>
				</g>
				<path class="st25" d="M9,22.5h6v460H9"/>
				<text transform="matrix(1 0 0 1 -4.7601 13.5)" class="st26 st27 st28">Attempts</text>
			</g>
		</g>
		<g transform="translate(191.75)">
			<g>
				<g transform="translate(0,460)">
					<line class="st25" x1="15" y1="22.5" x2="9" y2="22.5"/>
					<text transform="matrix(1 0 0 1 0.4074 25.7)" class="st26 st27 st28">0</text>
				</g>
				<g transform="translate(0,408.8888888888889)">
					<line class="st25" x1="15" y1="22.5" x2="9" y2="22.5"/>
					<text transform="matrix(1 0 0 1 0.4074 25.7)" class="st26 st27 st28">1</text>
				</g>
				<g transform="translate(0,357.77777777777777)">
					<line class="st25" x1="15" y1="22.5" x2="9" y2="22.5"/>
					<text transform="matrix(1 0 0 1 0.4074 25.7)" class="st26 st27 st28">2</text>
				</g>
				<g transform="translate(0,306.6666666666667)">
					<line class="st25" x1="15" y1="22.5" x2="9" y2="22.5"/>
					<text transform="matrix(1 0 0 1 0.4074 25.7)" class="st26 st27 st28">3</text>
				</g>
				<g transform="translate(0,255.55555555555557)">
					<line class="st25" x1="15" y1="22.5" x2="9" y2="22.5"/>
					<text transform="matrix(1 0 0 1 0.4074 25.7)" class="st26 st27 st28">4</text>
				</g>
				<g transform="translate(0,204.44444444444443)">
					<line class="st25" x1="15" y1="22.5" x2="9" y2="22.5"/>
					<text transform="matrix(1 0 0 1 0.4074 25.7)" class="st26 st27 st28">5</text>
				</g>
				<g transform="translate(0,153.33333333333337)">
					<line class="st25" x1="15" y1="22.5" x2="9" y2="22.5"/>
					<text transform="matrix(1 0 0 1 0.4074 25.7)" class="st26 st27 st28">6</text>
				</g>
				<g transform="translate(0,102.22222222222229)">
					<line class="st25" x1="15" y1="22.5" x2="9" y2="22.5"/>
					<text transform="matrix(1 0 0 1 0.4074 25.7)" class="st26 st27 st28">7</text>
				</g>
				<g transform="translate(0,51.11111111111114)">
					<line class="st25" x1="15" y1="22.5" x2="9" y2="22.5"/>
					<text transform="matrix(1 0 0 1 0.4074 25.7)" class="st26 st27 st28">8</text>
				</g>
				<g transform="translate(0,0)">
					<line class="st25" x1="15" y1="22.5" x2="9" y2="22.5"/>
					<text transform="matrix(1 0 0 1 0.4074 25.7)" class="st26 st27 st28">9</text>
				</g>
				<path class="st25" d="M9,22.5h6v460H9"/>
				<text transform="matrix(1 0 0 1 -5.8733 13.5)" class="st26 st27 st28">Thwarted</text>
			</g>
		</g>
		<g transform="translate(287.625)">
			<g>
				<g transform="translate(0,460)">
					<line class="st25" x1="15" y1="22.5" x2="9" y2="22.5"/>
					<text transform="matrix(1 0 0 1 0.4074 25.7)" class="st26 st27 st28">0</text>
				</g>
				<g transform="translate(0,394.2857142857143)">
					<line class="st25" x1="15" y1="22.5" x2="9" y2="22.5"/>
					<text transform="matrix(1 0 0 1 0.4074 25.7)" class="st26 st27 st28">1</text>
				</g>
				<g transform="translate(0,328.57142857142856)">
					<line class="st25" x1="15" y1="22.5" x2="9" y2="22.5"/>
					<text transform="matrix(1 0 0 1 0.4074 25.7)" class="st26 st27 st28">2</text>
				</g>
				<g transform="translate(0,262.8571428571429)">
					<line class="st25" x1="15" y1="22.5" x2="9" y2="22.5"/>
					<text transform="matrix(1 0 0 1 0.4074 25.7)" class="st26 st27 st28">3</text>
				</g>
				<g transform="translate(0,197.14285714285717)">
					<line class="st25" x1="15" y1="22.5" x2="9" y2="22.5"/>
					<text transform="matrix(1 0 0 1 0.4074 25.7)" class="st26 st27 st28">4</text>
				</g>
				<g transform="translate(0,131.42857142857144)">
					<line class="st25" x1="15" y1="22.5" x2="9" y2="22.5"/>
					<text transform="matrix(1 0 0 1 0.4074 25.7)" class="st26 st27 st28">5</text>
				</g>
				<g transform="translate(0,65.71428571428572)">
					<line class="st25" x1="15" y1="22.5" x2="9" y2="22.5"/>
					<text transform="matrix(1 0 0 1 0.4074 25.7)" class="st26 st27 st28">6</text>
				</g>
				<g transform="translate(0,0)">
					<line class="st25" x1="15" y1="22.5" x2="9" y2="22.5"/>
					<text transform="matrix(1 0 0 1 0.4074 25.7)" class="st26 st27 st28">7</text>
				</g>
				<path class="st25" d="M9,22.5h6v460H9"/>
				<text transform="matrix(1 0 0 1 -1.7107 13.5)" class="st26 st27 st28">Alleged</text>
			</g>
		</g>
		<g transform="translate(383.5)">
			<g>
				<g transform="translate(0,460)">
					<line class="st25" x1="15" y1="22.5" x2="9" y2="22.5"/>
					<text transform="matrix(1 0 0 1 -7.9324 25.7)" class="st26 st27 st28">0.0</text>
				</g>
				<g transform="translate(0,414)">
					<line class="st25" x1="15" y1="22.5" x2="9" y2="22.5"/>
					<text transform="matrix(1 0 0 1 -7.9324 25.7)" class="st26 st27 st28">0.1</text>
				</g>
				<g transform="translate(0,368)">
					<line class="st25" x1="15" y1="22.5" x2="9" y2="22.5"/>
					<text transform="matrix(1 0 0 1 -7.9324 25.7)" class="st26 st27 st28">0.2</text>
				</g>
				<g transform="translate(0,322)">
					<line class="st25" x1="15" y1="22.5" x2="9" y2="22.5"/>
					<text transform="matrix(1 0 0 1 -7.9324 25.7)" class="st26 st27 st28">0.3</text>
				</g>
				<g transform="translate(0,276)">
					<line class="st25" x1="15" y1="22.5" x2="9" y2="22.5"/>
					<text transform="matrix(1 0 0 1 -7.9324 25.7)" class="st26 st27 st28">0.4</text>
				</g>
				<g transform="translate(0,230)">
					<line class="st25" x1="15" y1="22.5" x2="9" y2="22.5"/>
					<text transform="matrix(1 0 0 1 -7.9324 25.7)" class="st26 st27 st28">0.5</text>
				</g>
				<g transform="translate(0,184)">
					<line class="st25" x1="15" y1="22.5" x2="9" y2="22.5"/>
					<text transform="matrix(1 0 0 1 -7.9324 25.7)" class="st26 st27 st28">0.6</text>
				</g>
				<g transform="translate(0,138)">
					<line class="st25" x1="15" y1="22.5" x2="9" y2="22.5"/>
					<text transform="matrix(1 0 0 1 -7.9324 25.7)" class="st26 st27 st28">0.7</text>
				</g>
				<g transform="translate(0,92)">
					<line class="st25" x1="15" y1="22.5" x2="9" y2="22.5"/>
					<text transform="matrix(1 0 0 1 -7.9324 25.7)" class="st26 st27 st28">0.8</text>
				</g>
				<g transform="translate(0,46)">
					<line class="st25" x1="15" y1="22.5" x2="9" y2="22.5"/>
					<text transform="matrix(1 0 0 1 -7.9324 25.7)" class="st26 st27 st28">0.9</text>
				</g>
				<g transform="translate(0,0)">
					<line class="st25" x1="15" y1="22.5" x2="9" y2="22.5"/>
					<text transform="matrix(1 0 0 1 -7.9324 25.7)" class="st26 st27 st28">1.0</text>
				</g>
				<path class="st25" d="M9,22.5h6v460H9"/>
				<text transform="matrix(1 0 0 1 -7.2625 13.5)" class="st26 st27 st28">Autocratic</text>
			</g>
		</g>
		<g transform="translate(479.375)">
			<g>
				<g transform="translate(0,460)">
					<line class="st25" x1="15" y1="22.5" x2="9" y2="22.5"/>
					<text transform="matrix(1 0 0 1 -7.9324 25.7)" class="st26 st27 st28">0.0</text>
				</g>
				<g transform="translate(0,414)">
					<line class="st25" x1="15" y1="22.5" x2="9" y2="22.5"/>
					<text transform="matrix(1 0 0 1 -7.9324 25.7)" class="st26 st27 st28">0.1</text>
				</g>
				<g transform="translate(0,368)">
					<line class="st25" x1="15" y1="22.5" x2="9" y2="22.5"/>
					<text transform="matrix(1 0 0 1 -7.9324 25.7)" class="st26 st27 st28">0.2</text>
				</g>
				<g transform="translate(0,322)">
					<line class="st25" x1="15" y1="22.5" x2="9" y2="22.5"/>
					<text transform="matrix(1 0 0 1 -7.9324 25.7)" class="st26 st27 st28">0.3</text>
				</g>
				<g transform="translate(0,276)">
					<line class="st25" x1="15" y1="22.5" x2="9" y2="22.5"/>
					<text transform="matrix(1 0 0 1 -7.9324 25.7)" class="st26 st27 st28">0.4</text>
				</g>
				<g transform="translate(0,230)">
					<line class="st25" x1="15" y1="22.5" x2="9" y2="22.5"/>
					<text transform="matrix(1 0 0 1 -7.9324 25.7)" class="st26 st27 st28">0.5</text>
				</g>
				<g transform="translate(0,184)">
					<line class="st25" x1="15" y1="22.5" x2="9" y2="22.5"/>
					<text transform="matrix(1 0 0 1 -7.9324 25.7)" class="st26 st27 st28">0.6</text>
				</g>
				<g transform="translate(0,138)">
					<line class="st25" x1="15" y1="22.5" x2="9" y2="22.5"/>
					<text transform="matrix(1 0 0 1 -7.9324 25.7)" class="st26 st27 st28">0.7</text>
				</g>
				<g transform="translate(0,92)">
					<line class="st25" x1="15" y1="22.5" x2="9" y2="22.5"/>
					<text transform="matrix(1 0 0 1 -7.9324 25.7)" class="st26 st27 st28">0.8</text>
				</g>
				<g transform="translate(0,46)">
					<line class="st25" x1="15" y1="22.5" x2="9" y2="22.5"/>
					<text transform="matrix(1 0 0 1 -7.9324 25.7)" class="st26 st27 st28">0.9</text>
				</g>
				<g transform="translate(0,0)">
					<line class="st25" x1="15" y1="22.5" x2="9" y2="22.5"/>
					<text transform="matrix(1 0 0 1 -7.9324 25.7)" class="st26 st27 st28">1.0</text>
				</g>
				<path class="st25" d="M9,22.5h6v460H9"/>
				<text transform="matrix(1 0 0 1 -18.3782 13.5)" class="st26 st27 st28">Foreign Ouster</text>
			</g>
		</g>
		<g transform="translate(575.25)">
			<g>
				<g transform="translate(0,460)">
					<line class="st25" x1="15" y1="22.5" x2="9" y2="22.5"/>
					<text transform="matrix(1 0 0 1 -7.9324 25.7)" class="st26 st27 st28">0.0</text>
				</g>
				<g transform="translate(0,414)">
					<line class="st25" x1="15" y1="22.5" x2="9" y2="22.5"/>
					<text transform="matrix(1 0 0 1 -7.9324 25.7)" class="st26 st27 st28">0.2</text>
				</g>
				<g transform="translate(0,368)">
					<line class="st25" x1="15" y1="22.5" x2="9" y2="22.5"/>
					<text transform="matrix(1 0 0 1 -7.9324 25.7)" class="st26 st27 st28">0.4</text>
				</g>
				<g transform="translate(0,322)">
					<line class="st25" x1="15" y1="22.5" x2="9" y2="22.5"/>
					<text transform="matrix(1 0 0 1 -7.9324 25.7)" class="st26 st27 st28">0.6</text>
				</g>
				<g transform="translate(0,276)">
					<line class="st25" x1="15" y1="22.5" x2="9" y2="22.5"/>
					<text transform="matrix(1 0 0 1 -7.9324 25.7)" class="st26 st27 st28">0.8</text>
				</g>
				<g transform="translate(0,230)">
					<line class="st25" x1="15" y1="22.5" x2="9" y2="22.5"/>
					<text transform="matrix(1 0 0 1 -7.9324 25.7)" class="st26 st27 st28">1.0</text>
				</g>
				<g transform="translate(0,184)">
					<line class="st25" x1="15" y1="22.5" x2="9" y2="22.5"/>
					<text transform="matrix(1 0 0 1 -7.9324 25.7)" class="st26 st27 st28">1.2</text>
				</g>
				<g transform="translate(0,138)">
					<line class="st25" x1="15" y1="22.5" x2="9" y2="22.5"/>
					<text transform="matrix(1 0 0 1 -7.9324 25.7)" class="st26 st27 st28">1.4</text>
				</g>
				<g transform="translate(0,92)">
					<line class="st25" x1="15" y1="22.5" x2="9" y2="22.5"/>
					<text transform="matrix(1 0 0 1 -7.9324 25.7)" class="st26 st27 st28">1.6</text>
				</g>
				<g transform="translate(0,46)">
					<line class="st25" x1="15" y1="22.5" x2="9" y2="22.5"/>
					<text transform="matrix(1 0 0 1 -7.9324 25.7)" class="st26 st27 st28">1.8</text>
				</g>
				<g transform="translate(0,0)">
					<line class="st25" x1="15" y1="22.5" x2="9" y2="22.5"/>
					<text transform="matrix(1 0 0 1 -7.9324 25.7)" class="st26 st27 st28">2.0</text>
				</g>
				<path class="st25" d="M9,22.5h6v460H9"/>
				<text transform="matrix(1 0 0 1 -14.4891 13.5)" class="st26 st27 st28">Rebel Ouster</text>
			</g>
		</g>
		<g transform="translate(671.125)">
			<g>
				<g transform="translate(0,460)">
					<line class="st25" x1="15" y1="22.5" x2="9" y2="22.5"/>
					<text transform="matrix(1 0 0 1 -7.9324 25.7)" class="st26 st27 st28">0.0</text>
				</g>
				<g transform="translate(0,414)">
					<line class="st25" x1="15" y1="22.5" x2="9" y2="22.5"/>
					<text transform="matrix(1 0 0 1 -7.9324 25.7)" class="st26 st27 st28">0.2</text>
				</g>
				<g transform="translate(0,368)">
					<line class="st25" x1="15" y1="22.5" x2="9" y2="22.5"/>
					<text transform="matrix(1 0 0 1 -7.9324 25.7)" class="st26 st27 st28">0.4</text>
				</g>
				<g transform="translate(0,322)">
					<line class="st25" x1="15" y1="22.5" x2="9" y2="22.5"/>
					<text transform="matrix(1 0 0 1 -7.9324 25.7)" class="st26 st27 st28">0.6</text>
				</g>
				<g transform="translate(0,276)">
					<line class="st25" x1="15" y1="22.5" x2="9" y2="22.5"/>
					<text transform="matrix(1 0 0 1 -7.9324 25.7)" class="st26 st27 st28">0.8</text>
				</g>
				<g transform="translate(0,230)">
					<line class="st25" x1="15" y1="22.5" x2="9" y2="22.5"/>
					<text transform="matrix(1 0 0 1 -7.9324 25.7)" class="st26 st27 st28">1.0</text>
				</g>
				<g transform="translate(0,184)">
					<line class="st25" x1="15" y1="22.5" x2="9" y2="22.5"/>
					<text transform="matrix(1 0 0 1 -7.9324 25.7)" class="st26 st27 st28">1.2</text>
				</g>
				<g transform="translate(0,138)">
					<line class="st25" x1="15" y1="22.5" x2="9" y2="22.5"/>
					<text transform="matrix(1 0 0 1 -7.9324 25.7)" class="st26 st27 st28">1.4</text>
				</g>
				<g transform="translate(0,92)">
					<line class="st25" x1="15" y1="22.5" x2="9" y2="22.5"/>
					<text transform="matrix(1 0 0 1 -7.9324 25.7)" class="st26 st27 st28">1.6</text>
				</g>
				<g transform="translate(0,46)">
					<line class="st25" x1="15" y1="22.5" x2="9" y2="22.5"/>
					<text transform="matrix(1 0 0 1 -7.9324 25.7)" class="st26 st27 st28">1.8</text>
				</g>
				<g transform="translate(0,0)">
					<line class="st25" x1="15" y1="22.5" x2="9" y2="22.5"/>
					<text transform="matrix(1 0 0 1 -7.9324 25.7)" class="st26 st27 st28">2.0</text>
				</g>
				<path class="st25" d="M9,22.5h6v460H9"/>
				<text transform="matrix(1 0 0 1 -18.3807 13.5)" class="st26 st27 st28">Assassinations</text>
			</g>
		</g>
		<g transform="translate(767)">
			<g>
				<g transform="translate(0,460)">
					<line class="st25" x1="15" y1="22.5" x2="9" y2="22.5"/>
					<text transform="matrix(1 0 0 1 -7.9324 25.7)" class="st26 st27 st28">0.0</text>
				</g>
				<g transform="translate(0,383.33333333333337)">
					<line class="st25" x1="15" y1="22.5" x2="9" y2="22.5"/>
					<text transform="matrix(1 0 0 1 -7.9324 25.7)" class="st26 st27 st28">0.5</text>
				</g>
				<g transform="translate(0,306.6666666666667)">
					<line class="st25" x1="15" y1="22.5" x2="9" y2="22.5"/>
					<text transform="matrix(1 0 0 1 -7.9324 25.7)" class="st26 st27 st28">1.0</text>
				</g>
				<g transform="translate(0,230)">
					<line class="st25" x1="15" y1="22.5" x2="9" y2="22.5"/>
					<text transform="matrix(1 0 0 1 -7.9324 25.7)" class="st26 st27 st28">1.5</text>
				</g>
				<g transform="translate(0,153.33333333333337)">
					<line class="st25" x1="15" y1="22.5" x2="9" y2="22.5"/>
					<text transform="matrix(1 0 0 1 -7.9324 25.7)" class="st26 st27 st28">2.0</text>
				</g>
				<g transform="translate(0,76.66666666666669)">
					<line class="st25" x1="15" y1="22.5" x2="9" y2="22.5"/>
					<text transform="matrix(1 0 0 1 -7.9324 25.7)" class="st26 st27 st28">2.5</text>
				</g>
				<g transform="translate(0,0)">
					<line class="st25" x1="15" y1="22.5" x2="9" y2="22.5"/>
					<text transform="matrix(1 0 0 1 -7.9324 25.7)" class="st26 st27 st28">3.0</text>
				</g>
				<path class="st25" d="M9,22.5h6v460H9"/>
				<text transform="matrix(1 0 0 1 -13.9373 13.5)" class="st26 st27 st28">Resignations</text>
			</g>
		</g>
	</g>
</g>
<rect x="61" y="58.5" class="st29" width="45" height="10"/>
<text transform="matrix(1 0 0 1 60.9689 67.02)" class="st30 st31 st32">Thailand</text>
<rect x="57.2" y="197" class="st29" width="45" height="10"/>
<text transform="matrix(1 0 0 1 57.2422 205.5293)" class="st33 st31 st32">Bolivia</text>
<rect x="634.9" y="55.4" class="st29" width="45" height="10"/>
<text transform="matrix(1 0 0 1 634.882 63.9144)" class="st33 st31 st32">Bolivia</text>
<rect x="732.4" y="55.6" class="st29" width="45" height="10"/>
<text transform="matrix(1 0 0 1 732.3975 64.1567)" class="st34 st31 st32">Burundi</text>
<rect x="2" y="267.2" class="st29" width="54.9" height="10"/>
<text transform="matrix(1 0 0 1 1.9627 275.7157)" class="st35 st31 st32">Argentina</text>
<rect x="539.9" y="54.8" class="st29" width="62.4" height="10"/>
<text transform="matrix(1 0 0 1 539.851 63.2933)" class="st36 st31 st32">Afghanistan</text>
<rect x="367.4" y="56.5" class="st29" width="62.4" height="10"/>
<text transform="matrix(1 0 0 1 367.4372 65.0174)" class="st37 st31 st32">Sierra Leone</text>
<rect x="400.8" y="254.2" class="st29" width="62.4" height="10"/>
<text transform="matrix(1 0 0 1 400.7705 262.7186)" class="st38 st31 st32">El Salvador</text>
<rect x="170.7" y="260.1" class="st29" width="41.5" height="28"/>
<text transform="matrix(1 0 0 1 170.7267 268.6411)"><tspan x="0" y="0" class="st39 st31 st32">Guinea-</tspan><tspan x="0" y="14.4" class="st39 st31 st32">Bissau</tspan></text>
<rect x="28.7" y="211.9" class="st29" width="45" height="10"/>
<text transform="matrix(1 0 0 1 28.6708 220.4362)" class="st40 st31 st32">Syria</text>
<rect x="56.6" y="334.9" class="st29" width="45" height="10"/>
<text transform="matrix(1 0 0 1 56.6211 343.4175)" class="st41 st31 st32">Haiti</text>
<rect x="824.9" y="52.9" class="st29" width="45" height="10"/>
<text transform="matrix(1 0 0 1 824.9441 61.4299)" class="st41 st31 st32">Haiti</text>
<rect x="157.9" y="56" class="st29" width="45" height="10"/>
<text transform="matrix(1 0 0 1 157.8634 64.5355)" class="st42 st31 st32">Iraq</text>
<rect x="447.5" y="75" class="st29" width="45" height="10"/>
<text transform="matrix(1 0 0 1 447.5185 83.5011)" class="st43 st31 st32">Peru</text>
<rect x="54" y="4.5" class="st29" width="768" height="30"/>
<text transform="matrix(1 0 0 1 128.5333 21.7714)" class="st26 st44 st45">Coups &amp; Unsettled leadership transitions</text>
<rect x="47" y="520.5" class="st29" width="768" height="10.5"/>
<text transform="matrix(1 0 0 1 282.8765 527.6899)" class="st26 st44 st28">Source: Coups d’etat (INSCR) | Travis wethington</text>
<rect x="277.1" y="41.1" class="st29" width="45" height="10"/>
<text transform="matrix(1 0 0 1 277.118 49.6287)" class="st46 st31 st32">Sudan</text>
<rect x="251.7" y="204.5" class="st29" width="45" height="10"/>
<text transform="matrix(1 0 0 1 251.6521 212.9827)" class="st47 st31 st32">Nigeria</text>
</svg>
