<svg id="Layer_1" data-name="Layer 1" xmlns="http://www.w3.org/2000/svg" viewBox="0 0 867.96 529.86"><defs><style>.cls-1,.cls-10,.cls-11,.cls-12,.cls-13,.cls-14,.cls-15,.cls-16,.cls-17,.cls-18,.cls-19,.cls-2,.cls-20,.cls-21,.cls-22,.cls-23,.cls-24,.cls-25,.cls-26,.cls-28,.cls-3,.cls-4,.cls-5,.cls-6,.cls-7,.cls-8,.cls-9{fill:none;}.cls-1{stroke:#bf6969;}.cls-1,.cls-10,.cls-11,.cls-12,.cls-13,.cls-14,.cls-15,.cls-16,.cls-17,.cls-18,.cls-19,.cls-2,.cls-20,.cls-21,.cls-22,.cls-23,.cls-24,.cls-25,.cls-3,.cls-4,.cls-5,.cls-6,.cls-7,.cls-8,.cls-9{stroke-opacity:0.4;}.cls-2{stroke:#bf7e69;}.cls-3{stroke:#bf9269;}.cls-4{stroke:#bfa769;}.cls-5{stroke:#bfbb69;}.cls-6{stroke:#aebf69;}.cls-7{stroke:#99bf69;}.cls-8{stroke:#84bf69;}.cls-9{stroke:#70bf69;}.cls-10{stroke:#69bf77;}.cls-11{stroke:#69bf8b;}.cls-12{stroke:#69bfa0;}.cls-13{stroke:#69bfb4;}.cls-14{stroke:#69b4bf;}.cls-15{stroke:#69a0bf;}.cls-16{stroke:#698bbf;}.cls-17{stroke:#6977bf;}.cls-18{stroke:#7069bf;}.cls-19{stroke:#8469bf;}.cls-20{stroke:#9969bf;}.cls-21{stroke:#ae69bf;}.cls-22{stroke:#bf69bb;}.cls-23{stroke:#bf69a7;}.cls-24{stroke:#bf6992;}.cls-25{stroke:#bf697e;}.cls-26{stroke:#000;}.cls-27,.cls-29,.cls-30,.cls-31,.cls-32,.cls-33,.cls-34,.cls-35,.cls-36,.cls-37,.cls-38,.cls-39,.cls-40,.cls-41,.cls-42,.cls-43,.cls-45,.cls-46{isolation:isolate;}.cls-27,.cls-43{font-size:10px;}.cls-27,.cls-42,.cls-43{fill:silver;}.cls-27,.cls-29,.cls-30,.cls-31,.cls-32,.cls-33,.cls-34,.cls-35,.cls-37,.cls-38,.cls-39,.cls-40,.cls-41,.cls-45,.cls-46{font-family:Arial;}.cls-29,.cls-30,.cls-31,.cls-32,.cls-33,.cls-34,.cls-35,.cls-37,.cls-38,.cls-39,.cls-40,.cls-41,.cls-45,.cls-46{font-size:12px;}.cls-29{fill:#e5c3d3;}.cls-30{fill:#e5e4c3;}.cls-31{fill:#d6e5c3;}.cls-32{fill:#e5cbc3;}.cls-33{fill:#e5c3c3;}.cls-34{fill:#dfc3e5;}.cls-35{fill:#acd7c8;}.cls-37{fill:#c3e5e1;}.cls-38{fill:#ecd3e5;}.cls-39{fill:#c3e1e5;}.cls-40{fill:#c3d1e5;}.cls-41{fill:#98a4a2;}.cls-42{font-size:24px;}.cls-42,.cls-43{font-family:Perpetua Titling MT;font-weight:700;}.cls-44{letter-spacing:-1px;}.cls-45{fill:#e5c3e4;}.cls-46{fill:#c6c3e5;}</style></defs><title>parcoord</title><path class="cls-1" d="M55,435.8L150.9,340l95.9,172.5,95.9-65.7,95.9,65.7,95.9-460,95.9,230,95.9,230H822" transform="translate(-1.94 -1.14)"/><path class="cls-2" d="M55,282.5h95.9l95.9,178.9,95.9,51.1H726.3L822,359.2" transform="translate(-1.94 -1.14)"/><path class="cls-3" d="M55,512.5l95.9-143.8,95.9,92.6,95.9,51.1H630.4l95.9-230,95.9,76.7" transform="translate(-1.94 -1.14)"/><path class="cls-4" d="M55,435.8L150.9,340l95.9,19.2,95.9,87.6,95.9,65.7H726.3L822,359.2" transform="translate(-1.94 -1.14)"/><path class="cls-5" d="M55,205.8l95.9,47.9,95.9,3.2,95.9,58.4L438.6,52.4l95.9,460,95.9-460,95.9,460L822,205.8" transform="translate(-1.94 -1.14)"/><path class="cls-6" d="M55,435.8l95.9,76.7h95.9l95.9-65.7,95.9,65.7H630.4l95.9-230,95.9,76.7" transform="translate(-1.94 -1.14)"/><path class="cls-7" d="M55,512.5l95.9-230,95.9,127.8,95.9-29.2,95.9,131.4H630.4l95.9-460L822,359.2" transform="translate(-1.94 -1.14)"/><path class="cls-8" d="M55,512.5L150.8,340l95.9,172.5,95.9-65.7,95.9,65.7h95.9l95.9-230,95.9,230L822,359.2" transform="translate(-1.94 -1.14)"/><path class="cls-9" d="M55,512.5l95.9-115,95.9,115h95.9l95.9-460,95.9,460H726.3L822,205.8" transform="translate(-1.94 -1.14)"/><path class="cls-10" d="M55,435.8l95.9,47.9,95.9,28.8,95.9-65.7L438.6,52.5l95.9,460H822" transform="translate(-1.94 -1.14)"/><path class="cls-11" d="M55,435.8L150.9,340l95.9,121.4,95.9-146,95.9,197.1H822" transform="translate(-1.94 -1.14)"/><path class="cls-12" d="M55,435.8l95.9-124.6,95.9,201.3H630.4l95.9-230,95.9,230" transform="translate(-1.94 -1.14)"/><path class="cls-13" d="M55,512.5l95.9-258.8,95.9,156.5,95.9-226.3,95.9,328.6H630.4l95.9-230,95.9,76.7" transform="translate(-1.94 -1.14)"/><path class="cls-14" d="M55,359.2l95.9-47.9,95.9,201.3h95.9l95.9-460h95.9l95.9,460h95.9l95.9-460" transform="translate(-1.94 -1.14)"/><path class="cls-15" d="M55,435.8L150.9,455l95.9,57.5H726.3L822,359.2" transform="translate(-1.94 -1.14)"/><path class="cls-16" d="M55,512.5l95.9-460,95.9,255.6L342.7,184l95.9,328.6,95.9-460,95.9,460H822" transform="translate(-1.94 -1.14)"/><path class="cls-17" d="M55,435.8l95.9-38.3,95.9-89.4,95.9,138.7,95.9,65.7H822" transform="translate(-1.94 -1.14)"/><path class="cls-18" d="M55,359.2L150.9,455l95.9-249.2,95.9,306.7H630.4l95.9-230,95.9,230" transform="translate(-1.94 -1.14)"/><path class="cls-19" d="M55,435.8l95.9-9.6,95.9,35.1,95.9-14.6,95.9,65.7H822" transform="translate(-1.94 -1.14)"/><path class="cls-20" d="M55,435.8L150.9,455l95.9,6.4,95.9-14.6L438.6,52.5l95.9,460H822" transform="translate(-1.94 -1.14)"/><path class="cls-21" d="M55,435.8l95.9-67.1,95.9,41.5L342.7,381,438.6,52.4h95.9l95.9,460H822" transform="translate(-1.94 -1.14)"/><path class="cls-22" d="M55,512.5l95.9-316.3L246.8,52.4h95.9l95.9,460H726.3L822,359.2" transform="translate(-1.94 -1.14)"/><path class="cls-23" d="M55,205.8l95.9,191.7,95.9,12.8,95.9-94.9,95.9,197.1H822" transform="translate(-1.94 -1.14)"/><path class="cls-24" d="M55,52.5l95.9,316.3,95.9,92.6,95.9-80.3,95.9,131.4H726.3L822,359.2" transform="translate(-1.94 -1.14)"/><path class="cls-25" d="M55,512.5l95.9-86.3,95.9,86.3H822" transform="translate(-1.94 -1.14)"/><line class="cls-26" x1="53.06" y1="511.36" x2="47.06" y2="511.36"/><text class="cls-27" transform="translate(30.12 514.56)">4.0</text><line class="cls-26" x1="53.06" y1="473.02" x2="47.06" y2="473.02"/><text class="cls-27" transform="translate(38.46 476.22)">4</text><line class="cls-26" x1="53.06" y1="434.69" x2="47.06" y2="434.69"/><text class="cls-27" transform="translate(38.46 437.89)">5</text><line class="cls-26" x1="53.06" y1="396.36" x2="47.06" y2="396.36"/><text class="cls-27" transform="translate(30.12 399.56)">5.5</text><line class="cls-26" x1="53.06" y1="358.02" x2="47.06" y2="358.02"/><text class="cls-27" transform="translate(38.46 361.22)">6</text><line class="cls-26" x1="53.06" y1="319.69" x2="47.06" y2="319.69"/><text class="cls-27" transform="translate(30.12 322.89)">6.5</text><line class="cls-26" x1="53.06" y1="281.36" x2="47.06" y2="281.36"/><text class="cls-27" transform="translate(30.12 284.56)">7.0</text><line class="cls-26" x1="53.06" y1="243.02" x2="47.06" y2="243.02"/><text class="cls-27" transform="translate(30.12 246.22)">7.5</text><line class="cls-26" x1="53.06" y1="204.69" x2="47.06" y2="204.69"/><text class="cls-27" transform="translate(30.12 207.89)">8.0</text><line class="cls-26" x1="53.06" y1="166.36" x2="47.06" y2="166.36"/><text class="cls-27" transform="translate(30.12 169.56)">8.5</text><line class="cls-26" x1="53.06" y1="128.02" x2="47.06" y2="128.02"/><text class="cls-27" transform="translate(30.12 131.22)">9.0</text><line class="cls-26" x1="53.06" y1="89.69" x2="47.06" y2="89.69"/><text class="cls-27" transform="translate(30.12 92.89)">9.5</text><line class="cls-26" x1="53.06" y1="51.36" x2="47.06" y2="51.36"/><text class="cls-27" transform="translate(24.56 54.56)">10.0</text><path class="cls-26" d="M49,52.5h6v460H49" transform="translate(-1.94 -1.14)"/><text class="cls-27" transform="translate(28.85 42.36)">Successes</text><line class="cls-26" x1="148.93" y1="511.36" x2="142.93" y2="511.36"/><text class="cls-27" transform="translate(134.34 514.56)">0</text><line class="cls-26" x1="148.93" y1="453.86" x2="142.93" y2="453.86"/><text class="cls-27" transform="translate(134.34 457.06)">2</text><line class="cls-26" x1="148.93" y1="396.36" x2="142.93" y2="396.36"/><text class="cls-27" transform="translate(134.34 399.56)">4</text><line class="cls-26" x1="148.93" y1="338.86" x2="142.93" y2="338.86"/><text class="cls-27" transform="translate(134.34 342.06)">6</text><line class="cls-26" x1="148.93" y1="281.36" x2="142.93" y2="281.36"/><text class="cls-27" transform="translate(134.34 284.56)">8</text><line class="cls-26" x1="148.93" y1="223.86" x2="142.93" y2="223.86"/><text class="cls-27" transform="translate(128.78 227.06)">10</text><line class="cls-26" x1="148.93" y1="166.36" x2="142.93" y2="166.36"/><text class="cls-27" transform="translate(128.78 169.56)">12</text><line class="cls-26" x1="148.93" y1="108.86" x2="142.93" y2="108.86"/><text class="cls-27" transform="translate(128.78 112.06)">14</text><line class="cls-26" x1="148.93" y1="51.36" x2="142.93" y2="51.36"/><text class="cls-27" transform="translate(128.78 54.56)">16</text><path class="cls-26" d="M144.88,52.5h6v460h-6" transform="translate(-1.94 -1.14)"/><text class="cls-27" transform="translate(129.17 42.36)">Attempts</text><line class="cls-26" x1="244.81" y1="511.36" x2="238.81" y2="511.36"/><text class="cls-27" transform="translate(230.21 514.56)">0</text><line class="cls-26" x1="244.81" y1="460.25" x2="238.81" y2="460.25"/><text class="cls-27" transform="translate(230.21 463.45)">1</text><line class="cls-26" x1="244.81" y1="409.13" x2="238.81" y2="409.13"/><text class="cls-27" transform="translate(230.21 412.33)">2</text><line class="cls-26" x1="244.81" y1="358.02" x2="238.81" y2="358.02"/><text class="cls-27" transform="translate(230.21 361.22)">3</text><line class="cls-26" x1="244.81" y1="306.91" x2="238.81" y2="306.91"/><text class="cls-27" transform="translate(230.21 310.11)">4</text><line class="cls-26" x1="244.81" y1="255.8" x2="238.81" y2="255.8"/><text class="cls-27" transform="translate(230.21 259)">5</text><line class="cls-26" x1="244.81" y1="204.69" x2="238.81" y2="204.69"/><text class="cls-27" transform="translate(230.21 207.89)">6</text><line class="cls-26" x1="244.81" y1="153.58" x2="238.81" y2="153.58"/><text class="cls-27" transform="translate(230.21 156.78)">7</text><line class="cls-26" x1="244.81" y1="102.47" x2="238.81" y2="102.47"/><text class="cls-27" transform="translate(230.21 105.67)">8</text><line class="cls-26" x1="244.81" y1="51.36" x2="238.81" y2="51.36"/><text class="cls-27" transform="translate(230.21 54.56)">9</text><path class="cls-26" d="M240.75,52.5h6v460h-6" transform="translate(-1.94 -1.14)"/><text class="cls-27" transform="translate(223.93 42.36)">Thwarted</text><line class="cls-26" x1="340.68" y1="511.36" x2="334.68" y2="511.36"/><text class="cls-27" transform="translate(326.09 514.56)">0</text><line class="cls-26" x1="340.68" y1="445.64" x2="334.68" y2="445.64"/><text class="cls-27" transform="translate(326.09 448.84)">1</text><line class="cls-26" x1="340.68" y1="379.93" x2="334.68" y2="379.93"/><text class="cls-27" transform="translate(326.09 383.13)">2</text><line class="cls-26" x1="340.68" y1="314.21" x2="334.68" y2="314.21"/><text class="cls-27" transform="translate(326.09 317.41)">3</text><line class="cls-26" x1="340.68" y1="248.5" x2="334.68" y2="248.5"/><text class="cls-27" transform="translate(326.09 251.7)">4</text><line class="cls-26" x1="340.68" y1="182.79" x2="334.68" y2="182.79"/><text class="cls-27" transform="translate(326.09 185.99)">5</text><line class="cls-26" x1="340.68" y1="117.07" x2="334.68" y2="117.07"/><text class="cls-27" transform="translate(326.09 120.27)">6</text><line class="cls-26" x1="340.68" y1="51.36" x2="334.68" y2="51.36"/><text class="cls-27" transform="translate(326.09 54.56)">7</text><path class="cls-26" d="M336.63,52.5h6v460h-6" transform="translate(-1.94 -1.14)"/><text class="cls-27" transform="translate(323.97 42.36)">Alleged</text><line class="cls-26" x1="436.56" y1="511.36" x2="430.56" y2="511.36"/><text class="cls-27" transform="translate(413.62 514.56)">0.0</text><line class="cls-26" x1="436.56" y1="465.36" x2="430.56" y2="465.36"/><text class="cls-27" transform="translate(413.62 468.56)">0.1</text><line class="cls-26" x1="436.56" y1="419.36" x2="430.56" y2="419.36"/><text class="cls-27" transform="translate(413.62 422.56)">0.2</text><line class="cls-26" x1="436.56" y1="373.36" x2="430.56" y2="373.36"/><text class="cls-27" transform="translate(413.62 376.56)">0.3</text><line class="cls-26" x1="436.56" y1="327.36" x2="430.56" y2="327.36"/><text class="cls-27" transform="translate(413.62 330.56)">0.4</text><line class="cls-26" x1="436.56" y1="281.36" x2="430.56" y2="281.36"/><text class="cls-27" transform="translate(413.62 284.56)">0.5</text><line class="cls-26" x1="436.56" y1="235.36" x2="430.56" y2="235.36"/><text class="cls-27" transform="translate(413.62 238.56)">0.6</text><line class="cls-26" x1="436.56" y1="189.36" x2="430.56" y2="189.36"/><text class="cls-27" transform="translate(413.62 192.56)">0.7</text><line class="cls-26" x1="436.56" y1="143.36" x2="430.56" y2="143.36"/><text class="cls-27" transform="translate(413.62 146.56)">0.8</text><line class="cls-26" x1="436.56" y1="97.36" x2="430.56" y2="97.36"/><text class="cls-27" transform="translate(413.62 100.56)">0.9</text><line class="cls-26" x1="436.56" y1="51.36" x2="430.56" y2="51.36"/><text class="cls-27" transform="translate(413.62 54.56)">1.0</text><path class="cls-26" d="M432.5,52.5h6v460h-6" transform="translate(-1.94 -1.14)"/><text class="cls-27" transform="translate(414.29 42.36)">Autocratic</text><line class="cls-26" x1="532.43" y1="511.36" x2="526.43" y2="511.36"/><text class="cls-27" transform="translate(509.5 514.56)">0.0</text><line class="cls-26" x1="532.43" y1="465.36" x2="526.43" y2="465.36"/><text class="cls-27" transform="translate(509.5 468.56)">0.1</text><line class="cls-26" x1="532.43" y1="419.36" x2="526.43" y2="419.36"/><text class="cls-27" transform="translate(509.5 422.56)">0.2</text><line class="cls-26" x1="532.43" y1="373.36" x2="526.43" y2="373.36"/><text class="cls-27" transform="translate(509.5 376.56)">0.3</text><line class="cls-26" x1="532.43" y1="327.36" x2="526.43" y2="327.36"/><text class="cls-27" transform="translate(509.5 330.56)">0.4</text><line class="cls-26" x1="532.43" y1="281.36" x2="526.43" y2="281.36"/><text class="cls-27" transform="translate(509.5 284.56)">0.5</text><line class="cls-26" x1="532.43" y1="235.36" x2="526.43" y2="235.36"/><text class="cls-27" transform="translate(509.5 238.56)">0.6</text><line class="cls-26" x1="532.43" y1="189.36" x2="526.43" y2="189.36"/><text class="cls-27" transform="translate(509.5 192.56)">0.7</text><line class="cls-26" x1="532.43" y1="143.36" x2="526.43" y2="143.36"/><text class="cls-27" transform="translate(509.5 146.56)">0.8</text><line class="cls-26" x1="532.43" y1="97.36" x2="526.43" y2="97.36"/><text class="cls-27" transform="translate(509.5 100.56)">0.9</text><line class="cls-26" x1="532.43" y1="51.36" x2="526.43" y2="51.36"/><text class="cls-27" transform="translate(509.5 54.56)">1.0</text><path class="cls-26" d="M528.38,52.5h6v460h-6" transform="translate(-1.94 -1.14)"/><text class="cls-27" transform="translate(499.05 42.36)">Foreign Ouster</text><line class="cls-26" x1="628.31" y1="511.36" x2="622.31" y2="511.36"/><text class="cls-27" transform="translate(605.37 514.56)">0.0</text><line class="cls-26" x1="628.31" y1="465.36" x2="622.31" y2="465.36"/><text class="cls-27" transform="translate(605.37 468.56)">0.2</text><line class="cls-26" x1="628.31" y1="419.36" x2="622.31" y2="419.36"/><text class="cls-27" transform="translate(605.37 422.56)">0.4</text><line class="cls-26" x1="628.31" y1="373.36" x2="622.31" y2="373.36"/><text class="cls-27" transform="translate(605.37 376.56)">0.6</text><line class="cls-26" x1="628.31" y1="327.36" x2="622.31" y2="327.36"/><text class="cls-27" transform="translate(605.37 330.56)">0.8</text><line class="cls-26" x1="628.31" y1="281.36" x2="622.31" y2="281.36"/><text class="cls-27" transform="translate(605.37 284.56)">1.0</text><line class="cls-26" x1="628.31" y1="235.36" x2="622.31" y2="235.36"/><text class="cls-27" transform="translate(605.37 238.56)">1.2</text><line class="cls-26" x1="628.31" y1="189.36" x2="622.31" y2="189.36"/><text class="cls-27" transform="translate(605.37 192.56)">1.4</text><line class="cls-26" x1="628.31" y1="143.36" x2="622.31" y2="143.36"/><text class="cls-27" transform="translate(605.37 146.56)">1.6</text><line class="cls-26" x1="628.31" y1="97.36" x2="622.31" y2="97.36"/><text class="cls-27" transform="translate(605.37 100.56)">1.8</text><line class="cls-26" x1="628.31" y1="51.36" x2="622.31" y2="51.36"/><text class="cls-27" transform="translate(605.37 54.56)">2.0</text><path class="cls-26" d="M624.25,52.5h6v460h-6" transform="translate(-1.94 -1.14)"/><text class="cls-27" transform="translate(598.82 42.36)">Rebel Ouster</text><line class="cls-26" x1="724.18" y1="511.36" x2="718.18" y2="511.36"/><text class="cls-27" transform="translate(701.25 514.56)">0.0</text><line class="cls-26" x1="724.18" y1="465.36" x2="718.18" y2="465.36"/><text class="cls-27" transform="translate(701.25 468.56)">0.2</text><line class="cls-26" x1="724.18" y1="419.36" x2="718.18" y2="419.36"/><text class="cls-27" transform="translate(701.25 422.56)">0.4</text><line class="cls-26" x1="724.18" y1="373.36" x2="718.18" y2="373.36"/><text class="cls-27" transform="translate(701.25 376.56)">0.6</text><line class="cls-26" x1="724.18" y1="327.36" x2="718.18" y2="327.36"/><text class="cls-27" transform="translate(701.25 330.56)">0.8</text><line class="cls-26" x1="724.18" y1="281.36" x2="718.18" y2="281.36"/><text class="cls-27" transform="translate(701.25 284.56)">1.0</text><line class="cls-26" x1="724.18" y1="235.36" x2="718.18" y2="235.36"/><text class="cls-27" transform="translate(701.25 238.56)">1.2</text><line class="cls-26" x1="724.18" y1="189.36" x2="718.18" y2="189.36"/><text class="cls-27" transform="translate(701.25 192.56)">1.4</text><line class="cls-26" x1="724.18" y1="143.36" x2="718.18" y2="143.36"/><text class="cls-27" transform="translate(701.25 146.56)">1.6</text><line class="cls-26" x1="724.18" y1="97.36" x2="718.18" y2="97.36"/><text class="cls-27" transform="translate(701.25 100.56)">1.8</text><line class="cls-26" x1="724.18" y1="51.36" x2="718.18" y2="51.36"/><text class="cls-27" transform="translate(701.25 54.56)">2.0</text><path class="cls-26" d="M720.13,52.5h6v460h-6" transform="translate(-1.94 -1.14)"/><text class="cls-27" transform="translate(690.8 42.36)">Assassinations</text><line class="cls-26" x1="820.06" y1="511.36" x2="814.06" y2="511.36"/><text class="cls-27" transform="translate(797.12 514.56)">0.0</text><line class="cls-26" x1="820.06" y1="434.69" x2="814.06" y2="434.69"/><text class="cls-27" transform="translate(797.12 437.89)">0.5</text><line class="cls-26" x1="820.06" y1="358.02" x2="814.06" y2="358.02"/><text class="cls-27" transform="translate(797.12 361.22)">1.0</text><line class="cls-26" x1="820.06" y1="281.36" x2="814.06" y2="281.36"/><text class="cls-27" transform="translate(797.12 284.56)">1.5</text><line class="cls-26" x1="820.06" y1="204.69" x2="814.06" y2="204.69"/><text class="cls-27" transform="translate(797.12 207.89)">2.0</text><line class="cls-26" x1="820.06" y1="128.02" x2="814.06" y2="128.02"/><text class="cls-27" transform="translate(797.12 131.22)">2.5</text><line class="cls-26" x1="820.06" y1="51.36" x2="814.06" y2="51.36"/><text class="cls-27" transform="translate(797.12 54.56)">3.0</text><path class="cls-26" d="M816,52.5h6v460h-6" transform="translate(-1.94 -1.14)"/><text class="cls-27" transform="translate(791.12 42.36)">Resignations</text><rect class="cls-28" x="59.06" y="57.36" width="45" height="10"/><text class="cls-29" transform="translate(59.02 65.88)">Thailand</text><rect class="cls-28" x="55.26" y="195.86" width="45" height="10"/><text class="cls-30" transform="translate(55.3 204.39)">Bolivia</text><rect class="cls-28" x="632.96" y="54.26" width="45" height="10"/><text class="cls-30" transform="translate(632.94 62.77)">Bolivia</text><rect class="cls-28" x="730.46" y="54.46" width="45" height="10"/><text class="cls-31" transform="translate(730.45 63.01)">Burundi</text><rect class="cls-28" x="0.06" y="266.06" width="54.9" height="10"/><text class="cls-32" transform="translate(0.02 274.57)">Argentina</text><rect class="cls-28" x="537.96" y="53.66" width="62.4" height="10"/><text class="cls-33" transform="translate(537.91 62.15)">Afghanistan</text><rect class="cls-28" x="365.46" y="55.36" width="62.4" height="10"/><text class="cls-34" transform="translate(365.49 63.87)">Sierra Leone</text><rect class="cls-28" x="398.86" y="253.06" width="62.4" height="10"/><text class="cls-35" transform="translate(398.83 261.58)">El Salvador</text><rect class="cls-28" x="168.76" y="258.96" width="41.5" height="28"/><g class="cls-36"><text class="cls-37" transform="translate(168.78 267.5)">Guinea-</text><text class="cls-37" transform="translate(168.78 281.9)">Bissau</text></g><rect class="cls-28" x="26.76" y="210.76" width="45" height="10"/><text class="cls-38" transform="translate(26.73 219.29)">Syria</text><rect class="cls-28" x="54.66" y="333.76" width="45" height="10"/><text class="cls-39" transform="translate(54.68 342.27)">Haiti</text><rect class="cls-28" x="822.96" y="51.76" width="45" height="10"/><text class="cls-39" transform="translate(823 60.29)">Haiti</text><rect class="cls-28" x="155.96" y="54.86" width="45" height="10"/><text class="cls-40" transform="translate(155.92 63.39)">Iraq</text><rect class="cls-28" x="445.56" y="73.86" width="45" height="10"/><text class="cls-41" transform="translate(445.57 82.36)">Peru</text><rect class="cls-28" x="52.06" y="3.36" width="768" height="30"/><text class="cls-42" transform="translate(126.59 20.63)">Coups &amp; Unse<tspan x="188.75" y="0">t</tspan><tspan x="205.86" y="0">tled Leadership Transitions</tspan></text><rect class="cls-28" x="45.06" y="519.36" width="768" height="10.5"/><text class="cls-43" transform="translate(280.93 526.55)">Sou<tspan x="21.87" y="0">r</tspan><tspan x="29.29" y="0">ce: Coups d’E</tspan><tspan x="103.59" y="0">t</tspan><tspan x="109.97" y="0">a</tspan><tspan x="117.14" y="0">t (INSCR) | Tr</tspan><tspan class="cls-44" x="190.82" y="0">a</tspan><tspan x="197.18" y="0">vis Wething</tspan><tspan x="269.15" y="0">t</tspan><tspan x="275.83" y="0">on</tspan></text><rect class="cls-28" x="275.16" y="39.96" width="45" height="10"/><text class="cls-45" transform="translate(275.17 48.49)">Sudan</text><rect class="cls-28" x="249.76" y="203.36" width="45" height="10"/><text class="cls-46" transform="translate(249.71 211.84)">Nigeria</text></svg>